<svg width="57" height="54" viewBox="0 0 57 54" fill="none" xmlns="http://www.w3.org/2000/svg">
<path fill-rule="evenodd" clip-rule="evenodd" d="M28.4142 0.585786C29.1953 1.36683 29.1953 2.63317 28.4142 3.41421L6.82843 25H54.0833C55.1879 25 56.0833 25.8954 56.0833 27C56.0833 28.1046 55.1879 29 54.0833 29H6.82843L28.4142 50.5858C29.1953 51.3668 29.1953 52.6332 28.4142 53.4142C27.6332 54.1953 26.3668 54.1953 25.5858 53.4142L0.586052 28.4145C0.585963 28.4144 0.585875 28.4143 0.585786 28.4142C0.394033 28.2225 0.249357 28.0015 0.151757 27.7656C0.0539709 27.5298 0 27.2712 0 27C0 26.7288 0.0539711 26.4702 0.151758 26.2344C0.249357 25.9985 0.394033 25.7775 0.585786 25.5858L25.5858 0.585786C26.3668 -0.195262 27.6332 -0.195262 28.4142 0.585786Z" fill="#F5F5F5"/>
</svg>
