<svg width="196" height="264" viewBox="0 0 196 264" fill="none" xmlns="http://www.w3.org/2000/svg">
<path fill-rule="evenodd" clip-rule="evenodd" d="M187.475 70.5572C188.548 70.8195 189.205 71.9019 188.943 72.9749C185.226 88.1799 175.863 112.775 161.061 134.863C146.286 156.913 125.856 176.81 99.8892 181.962C74.9457 186.911 57.3829 195.43 45.6428 203.874C33.8459 212.358 28.0269 220.691 26.3777 225.188C25.9975 226.226 24.8485 226.758 23.8115 226.378C22.7744 225.997 22.242 224.849 22.6222 223.811C24.6397 218.309 31.1207 209.391 43.3072 200.626C55.5504 191.82 73.6543 183.089 99.1108 178.038C123.544 173.19 143.197 154.337 157.739 132.637C172.254 110.975 181.441 86.8201 185.057 72.0251C185.319 70.9521 186.402 70.2949 187.475 70.5572Z" fill="#F5F5F5"/>
<path fill-rule="evenodd" clip-rule="evenodd" d="M80.4037 0.5023C81.507 0.44913 82.4445 1.30042 82.4977 2.40371C83.1605 16.1577 84.8588 31.458 87.6753 44.7511C89.0836 51.3978 90.7637 57.5059 92.7174 62.6514C94.6809 67.8229 96.8738 71.8948 99.247 74.5738C101.601 77.2308 103.94 78.3238 106.321 78.1151C108.807 77.8972 111.92 76.2213 115.657 71.9861C123.133 63.5131 132.114 45.9345 142.608 15.3509C142.967 14.3061 144.104 13.7498 145.149 14.1083C146.194 14.4668 146.75 15.6043 146.392 16.6491C135.886 47.2655 126.7 65.5161 118.656 74.6326C114.633 79.1922 110.646 81.7512 106.671 82.0998C102.591 82.4574 99.1074 80.4483 96.2529 77.2262C93.4179 74.026 91.017 69.4417 88.9779 64.0712C86.9289 58.6748 85.1976 52.3553 83.7622 45.5802C80.8911 32.0295 79.1728 16.509 78.5023 2.59626C78.4491 1.49297 79.3004 0.555471 80.4037 0.5023Z" fill="#F5F5F5"/>
<path fill-rule="evenodd" clip-rule="evenodd" d="M94.1389 0.0328557C95.2253 -0.166583 96.2677 0.552454 96.4671 1.63887C98.0404 10.209 100.226 19.6974 102.834 27.8986C104.138 31.9996 105.538 35.7475 107.005 38.884C108.484 42.0455 109.979 44.4708 111.433 46.0181C112.905 47.5849 114.025 47.945 114.854 47.8275C115.756 47.6994 117.138 46.9022 118.854 44.2426C122.268 38.9484 125.934 27.9348 129.534 8.63325C129.736 7.54741 130.781 6.83135 131.867 7.0339C132.953 7.23643 133.669 8.28088 133.466 9.36672C129.866 28.6652 126.099 40.3891 122.215 46.4105C120.281 49.4087 118.049 51.4139 115.416 51.7877C112.709 52.1721 110.375 50.7338 108.517 48.7569C106.642 46.7604 104.934 43.8967 103.382 40.5789C101.818 37.2361 100.359 33.3144 99.0221 29.1107C96.3486 20.7026 94.1263 11.041 92.5329 2.3611C92.3334 1.27468 93.0525 0.232294 94.1389 0.0328557Z" fill="#F5F5F5"/>
<path fill-rule="evenodd" clip-rule="evenodd" d="M47.4144 14.8202C48.3421 14.2207 49.5802 14.4867 50.1797 15.4144C66.4968 40.663 84.9276 119.974 26.2439 224.479C25.703 225.442 24.4839 225.785 23.5207 225.244C22.5576 224.703 22.2153 223.484 22.7561 222.521C80.8724 119.026 62.1698 41.337 46.8202 17.5855C46.2207 16.6578 46.4867 15.4198 47.4144 14.8202Z" fill="#F5F5F5"/>
<path fill-rule="evenodd" clip-rule="evenodd" d="M32.7932 26.129C33.8265 25.7387 34.9806 26.2599 35.3709 27.2932C42.5269 46.2355 50.4087 78.376 50.3625 112.165C50.3163 145.935 42.3455 181.666 17.4368 207.391C16.6685 208.185 15.4023 208.205 14.6088 207.437C13.8152 206.668 13.7948 205.402 14.5632 204.609C38.4545 179.934 46.317 145.415 46.3625 112.16C46.408 78.9239 38.6398 47.2645 31.6291 28.7068C31.2387 27.6735 31.7599 26.5194 32.7932 26.129Z" fill="#F5F5F5"/>
<path fill-rule="evenodd" clip-rule="evenodd" d="M12.386 54.5966C13.4372 54.2575 14.5643 54.8348 14.9034 55.886C15.8567 58.8411 16.9849 62.1195 18.201 65.6531C23.2804 80.4126 29.8914 99.6225 31.6784 118.31C32.79 129.934 32.0633 141.537 27.861 151.893C23.6381 162.299 15.9564 171.314 3.41634 177.778C2.43453 178.284 1.22836 177.898 0.722268 176.916C0.216181 175.935 0.60183 174.728 1.58364 174.222C13.2936 168.186 20.2993 159.889 24.1546 150.389C28.0305 140.838 28.7724 129.941 27.6966 118.69C25.9601 100.532 19.5617 81.9237 14.4876 67.1665C13.2494 63.5655 12.0901 60.1938 11.0966 57.114C10.7575 56.0628 11.3348 54.9357 12.386 54.5966Z" fill="#F5F5F5"/>
<path fill-rule="evenodd" clip-rule="evenodd" d="M70.4841 3.00006C71.5887 2.9913 72.4912 3.87959 72.4999 4.98413C72.6662 25.9287 73.9028 49.3213 76.6538 69.6664C78.0295 79.8398 79.779 89.2154 81.9501 97.1249C84.1307 105.069 86.6972 111.385 89.6342 115.547C92.5665 119.703 95.569 121.339 98.7034 120.954C102.062 120.542 106.365 117.756 111.626 111.011C122.08 97.6067 135.107 70.155 151.105 22.8591C151.459 21.8128 152.595 21.2515 153.641 21.6055C154.687 21.9594 155.248 23.0945 154.895 24.1409C138.893 71.445 125.691 99.4808 114.78 113.471C109.359 120.422 104.196 124.31 99.1911 124.925C93.9622 125.567 89.7043 122.585 86.3658 117.853C83.0319 113.128 80.3172 106.287 78.0928 98.1837C75.859 90.0456 74.0799 80.4821 72.6899 70.2024C69.9097 49.6412 68.6672 26.0713 68.5001 5.01587C68.4913 3.91134 69.3796 3.00883 70.4841 3.00006Z" fill="#F5F5F5"/>
<path fill-rule="evenodd" clip-rule="evenodd" d="M193.354 156.249C193.768 157.273 193.275 158.439 192.251 158.854C176.599 165.197 153.695 177.991 135.936 195.68C118.169 213.377 105.835 235.665 110.468 261.142C110.665 262.229 109.945 263.27 108.858 263.468C107.771 263.665 106.73 262.945 106.532 261.858C101.565 234.535 114.897 210.99 133.114 192.846C151.339 174.692 174.734 161.636 190.749 155.146C191.773 154.732 192.939 155.225 193.354 156.249Z" fill="#F5F5F5"/>
<path fill-rule="evenodd" clip-rule="evenodd" d="M185.5 196.986C185.507 198.091 184.618 198.992 183.514 199C171.471 199.082 153.959 202.172 141.812 210.699C135.782 214.932 131.153 220.446 129.071 227.54C126.988 234.635 127.379 243.562 131.857 254.757C132.267 255.783 131.768 256.947 130.743 257.357C129.717 257.767 128.553 257.268 128.143 256.243C123.421 244.438 122.837 234.573 125.233 226.413C127.628 218.252 132.93 212.047 139.513 207.426C152.591 198.245 171.029 195.085 183.486 195C184.591 194.993 185.492 195.882 185.5 196.986Z" fill="#F5F5F5"/>
<path fill-rule="evenodd" clip-rule="evenodd" d="M148.555 220.147C156.717 215.388 168.085 214.652 175.239 215.514C176.336 215.646 177.118 216.643 176.986 217.739C176.854 218.836 175.857 219.618 174.761 219.486C168.082 218.681 157.699 219.446 150.57 223.603C147.064 225.647 144.457 228.441 143.329 232.186C142.196 235.95 142.458 240.993 145.338 247.712C145.773 248.727 145.303 249.903 144.288 250.338C143.273 250.773 142.097 250.303 141.662 249.288C138.541 242.007 138.013 235.967 139.499 231.033C140.991 226.08 144.415 222.561 148.555 220.147Z" fill="#F5F5F5"/>
<path fill-rule="evenodd" clip-rule="evenodd" d="M194.014 103.067C195.082 103.351 195.717 104.447 195.433 105.514C188.075 133.17 177.456 146.69 162.509 157.852C156.215 162.553 149.147 166.839 141.336 171.577C139.991 172.392 138.625 173.221 137.236 174.067C127.749 179.851 117.13 186.529 105.211 195.592C85.9454 210.242 72.6151 221.293 65.8854 231.315C62.5598 236.267 60.9437 240.834 60.9437 245.356C60.9437 249.877 62.559 254.603 66.1524 259.873C66.7746 260.786 66.5392 262.03 65.6266 262.652C64.714 263.275 63.4697 263.039 62.8475 262.127C58.941 256.397 56.9437 250.898 56.9437 245.356C56.9437 239.816 58.9401 234.483 62.5646 229.085C69.7349 218.407 83.6545 206.958 102.789 192.408C114.87 183.221 125.626 176.461 135.154 170.652C136.561 169.794 137.94 168.958 139.29 168.139C147.111 163.395 153.989 159.223 160.116 154.648C174.294 144.06 184.425 131.33 191.567 104.486C191.851 103.418 192.947 102.783 194.014 103.067Z" fill="#F5F5F5"/>
</svg>
