<svg width="375" height="3544" viewBox="0 0 375 3544" fill="none" xmlns="http://www.w3.org/2000/svg">
<path fill-rule="evenodd" clip-rule="evenodd" d="M25.5445 -7.24886C25.682 -7.26193 25.804 -7.1611 25.8171 -7.02364C30.0797 37.8125 31.1454 91.6145 27.4155 140.935C23.6865 190.245 15.1616 235.116 0.218676 262.06C0.151713 262.181 -0.00045561 262.225 -0.121202 262.158C-0.241948 262.091 -0.285547 261.939 -0.218584 261.818C14.668 234.975 23.1886 190.199 26.9169 140.898C30.6445 91.6075 29.5795 37.8339 25.3193 -6.97632C25.3063 -7.11377 25.4071 -7.23579 25.5445 -7.24886Z" fill="#F1DED0" fill-opacity="0.29"/>
<path fill-rule="evenodd" clip-rule="evenodd" d="M59.6302 -7.24831C59.7674 -7.26424 59.8915 -7.16598 59.9074 -7.02883C67.7213 60.2177 74.1142 169.153 67.8987 277.417C61.6841 385.668 42.8622 493.304 0.20866 557.91C0.132587 558.025 -0.0224894 558.057 -0.137714 557.981C-0.252938 557.905 -0.284677 557.75 -0.208604 557.634C42.3651 493.149 61.1852 385.634 67.3996 277.389C73.6131 169.158 67.2219 60.2519 59.4108 -6.97112C59.3948 -7.10827 59.4931 -7.23237 59.6302 -7.24831Z" fill="#F1DED0" fill-opacity="0.29"/>
<path fill-rule="evenodd" clip-rule="evenodd" d="M144.894 -7.24988C145.032 -7.24568 145.141 -7.13039 145.137 -6.99238C141.585 109.554 130.292 285.719 107.954 435.442C96.7845 510.301 82.8526 578.562 65.7425 629.457C57.1877 654.904 47.8344 676.021 37.6273 691.455C27.4239 706.883 16.3422 716.669 4.31674 719.38C4.18205 719.41 4.04825 719.325 4.01789 719.191C3.98753 719.056 4.07211 718.922 4.2068 718.892C16.045 716.223 27.0335 706.567 37.2103 691.179C47.3834 675.797 56.7202 654.725 65.2685 629.297C82.3647 578.444 96.2915 510.218 107.459 435.368C129.794 285.672 141.086 109.527 144.637 -7.00761C144.641 -7.14562 144.756 -7.25409 144.894 -7.24988Z" fill="#F1DED0" fill-opacity="0.29"/>
<path fill-rule="evenodd" clip-rule="evenodd" d="M208.818 -7.24974C208.956 -7.2435 209.063 -7.12662 209.057 -6.98869C203.375 118.524 186.328 316.206 153.656 501.338C137.319 593.905 117.075 683.339 92.39 759.05C67.7069 834.753 38.5745 896.763 4.44704 934.455C4.35437 934.557 4.19627 934.565 4.09392 934.472C3.99157 934.38 3.98373 934.221 4.0764 934.119C38.1307 896.508 67.2369 834.582 91.9146 758.895C116.59 683.215 136.829 593.805 153.163 501.251C185.831 316.145 202.876 118.486 208.557 -7.0113C208.564 -7.14923 208.68 -7.25598 208.818 -7.24974Z" fill="#F1DED0" fill-opacity="0.29"/>
<path fill-rule="evenodd" clip-rule="evenodd" d="M285.546 -7.24762C285.683 -7.2285 285.778 -7.10216 285.759 -6.96541C264.452 145.434 231 374.035 199.892 564.536C184.337 659.786 169.369 745.514 156.797 807.431C150.511 838.388 144.823 863.399 139.96 880.672C137.529 889.307 135.301 896.018 133.305 900.573C132.307 902.849 131.362 904.6 130.472 905.785C129.593 906.954 128.716 907.643 127.841 907.643C127.21 907.643 126.482 908.077 125.658 909.054C124.843 910.022 123.974 911.475 123.057 913.403C121.225 917.256 119.224 922.954 117.076 930.312C112.782 945.027 107.913 966.344 102.638 992.746C92.0875 1045.55 79.9167 1118.66 67.4701 1199.9C42.5771 1362.38 16.5831 1557.36 0.248076 1687.35C0.23086 1687.48 0.105848 1687.58 -0.0311453 1687.56C-0.168139 1687.55 -0.265238 1687.42 -0.248022 1687.29C16.0873 1557.3 42.082 1362.31 66.9759 1199.83C79.4227 1118.58 91.5949 1045.46 102.147 992.648C107.423 966.243 112.296 944.908 116.596 930.172C118.746 922.806 120.756 917.078 122.606 913.188C123.53 911.245 124.42 909.747 125.276 908.731C126.124 907.725 126.98 907.143 127.841 907.143C128.457 907.143 129.203 906.642 130.072 905.485C130.929 904.345 131.855 902.635 132.847 900.372C134.829 895.849 137.049 889.165 139.479 880.536C144.337 863.282 150.022 838.286 156.307 807.331C168.877 745.424 183.844 659.704 199.398 564.455C230.506 373.959 263.957 145.363 285.264 -7.03465C285.283 -7.17139 285.409 -7.26674 285.546 -7.24762Z" fill="#F1DED0" fill-opacity="0.29"/>
<path fill-rule="evenodd" clip-rule="evenodd" d="M370.801 -7.24189C370.935 -7.20699 371.015 -7.07041 370.98 -6.93682C264.449 400.944 126.383 1067.9 58.4162 1743.15C-9.55233 2418.41 -7.41391 3101.91 166.426 3542.9C166.476 3543.03 166.413 3543.18 166.285 3543.23C166.156 3543.28 166.011 3543.22 165.96 3543.09C-7.92722 3101.97 -10.0502 2418.36 57.9187 1743.1C125.889 1067.82 263.96 400.838 370.496 -7.06318C370.531 -7.19677 370.668 -7.27678 370.801 -7.24189Z" fill="#F1DED0" fill-opacity="0.29"/>
<path fill-rule="evenodd" clip-rule="evenodd" d="M-0.0151993 3166.23C0.122616 3166.22 0.241146 3166.33 0.249545 3166.46C3.80046 3224.73 11.0443 3313.47 21.235 3390.34C26.3305 3428.77 32.1619 3464.23 38.6354 3491.42C41.8723 3505.01 45.268 3516.53 48.8097 3525.32C50.5806 3529.72 52.3858 3533.43 54.2229 3536.37C56.0614 3539.31 57.9235 3541.47 59.8026 3542.79C59.9156 3542.87 59.943 3543.02 59.8637 3543.14C59.7845 3543.25 59.6286 3543.28 59.5155 3543.2C57.5594 3541.83 55.6551 3539.6 53.7989 3536.63C51.9412 3533.66 50.1235 3529.92 48.346 3525.51C44.791 3516.69 41.3885 3505.14 38.149 3491.53C31.6697 3464.32 25.8357 3428.84 20.7394 3390.4C10.5466 3313.52 3.30183 3224.77 -0.249529 3166.49C-0.257928 3166.36 -0.153015 3166.24 -0.0151993 3166.23Z" fill="#F1DED0" fill-opacity="0.29"/>
<path fill-rule="evenodd" clip-rule="evenodd" d="M375.059 315.484C375.193 315.517 375.276 315.652 375.243 315.786C285.755 687.817 178.159 1197.44 146.201 1517.24C138.211 1597.19 134.95 1665.26 137.879 1716.35C139.343 1741.9 142.354 1763.18 147.091 1779.58C151.83 1795.99 158.285 1807.46 166.606 1813.43C174.903 1819.38 185.107 1819.89 197.451 1814.24C209.806 1808.59 224.277 1796.79 241.048 1778.16C274.586 1740.9 317.255 1676.43 370.52 1579.62C370.586 1579.5 370.738 1579.46 370.859 1579.52C370.98 1579.59 371.024 1579.74 370.958 1579.86C317.689 1676.68 274.998 1741.19 241.419 1778.49C224.632 1797.14 210.106 1809.01 197.659 1814.7C185.2 1820.4 174.796 1819.92 166.314 1813.84C157.856 1807.77 151.36 1796.16 146.611 1779.72C141.859 1763.27 138.845 1741.94 137.38 1716.38C134.449 1665.25 137.713 1597.15 145.703 1517.19C177.665 1197.36 285.268 687.702 374.757 315.669C374.789 315.535 374.924 315.452 375.059 315.484Z" fill="#F1DED0" fill-opacity="0.29"/>
<path fill-rule="evenodd" clip-rule="evenodd" d="M370.797 584.426C370.931 584.458 371.014 584.593 370.982 584.727C320.557 795.392 250.247 1145 227.699 1364.62C222.062 1419.52 219.411 1466.29 220.8 1500.73C221.495 1517.95 223.199 1532.08 226.041 1542.59C228.886 1553.12 232.854 1559.96 238.021 1562.71C243.158 1565.45 249.588 1564.18 257.507 1558.22C265.422 1552.25 274.758 1541.63 285.647 1525.81C307.421 1494.18 335.356 1441.81 370.511 1364.49C370.568 1364.36 370.717 1364.31 370.842 1364.36C370.968 1364.42 371.024 1364.57 370.966 1364.7C335.809 1442.02 307.858 1494.42 286.059 1526.1C275.16 1541.93 265.788 1552.6 257.808 1558.62C249.832 1564.63 243.181 1566.03 237.787 1563.16C232.423 1560.3 228.409 1553.28 225.558 1542.72C222.703 1532.16 220.996 1517.99 220.301 1500.75C218.91 1466.28 221.564 1419.48 227.202 1364.57C249.753 1144.92 320.069 795.284 370.496 584.611C370.528 584.476 370.663 584.393 370.797 584.426Z" fill="#F1DED0" fill-opacity="0.29"/>
<path fill-rule="evenodd" clip-rule="evenodd" d="M370.94 1767.85C371.021 1767.96 370.997 1768.12 370.885 1768.2C327.965 1799.54 283.066 1858.89 243.391 1947.12C203.719 2035.34 169.278 2152.41 147.264 2299.19C103.235 2592.75 108.914 3005.09 221.835 3542.95C221.863 3543.08 221.777 3543.21 221.642 3543.24C221.506 3543.27 221.374 3543.18 221.346 3543.05C108.415 3005.15 102.73 2592.74 146.769 2299.12C168.789 2152.3 203.24 2035.18 242.935 1946.91C282.628 1858.64 327.573 1799.21 370.59 1767.8C370.702 1767.72 370.858 1767.74 370.94 1767.85Z" fill="#F1DED0" fill-opacity="0.29"/>
<path fill-rule="evenodd" clip-rule="evenodd" d="M375.202 2090.58C375.283 2090.69 375.259 2090.85 375.147 2090.93C370.179 2094.55 365.015 2098.16 359.701 2101.89C335.371 2118.93 307.883 2138.18 281.509 2169.89C249.379 2208.51 218.898 2265.62 197.865 2359.72C155.794 2547.93 151.526 2884.07 247.406 3516.07C247.427 3516.2 247.333 3516.33 247.196 3516.35C247.06 3516.37 246.932 3516.28 246.912 3516.14C151.03 2884.13 155.285 2547.92 197.377 2359.61C218.424 2265.45 248.934 2208.27 281.124 2169.57C307.545 2137.81 335.095 2118.51 359.429 2101.47C364.738 2097.75 369.895 2094.14 374.853 2090.53C374.964 2090.44 375.121 2090.47 375.202 2090.58Z" fill="#F1DED0" fill-opacity="0.29"/>
<path fill-rule="evenodd" clip-rule="evenodd" d="M370.976 2413.38C371.019 2413.51 370.947 2413.65 370.816 2413.69C361.084 2416.87 350.271 2417.43 339.043 2418.01C338.345 2418.04 337.645 2418.08 336.944 2418.12C324.952 2418.75 312.522 2419.59 300.374 2423.78C276.113 2432.14 252.893 2453.91 236.747 2514.37C220.599 2574.85 211.542 2673.99 215.582 2837.03C219.621 3000.06 236.754 3226.97 272.976 3542.97C272.991 3543.11 272.893 3543.23 272.756 3543.25C272.618 3543.26 272.495 3543.17 272.479 3543.03C236.257 3227.02 219.122 3000.1 215.082 2837.04C211.042 2673.99 220.097 2574.79 236.264 2514.24C252.433 2453.69 275.733 2431.75 300.211 2423.3C312.433 2419.09 324.928 2418.25 336.917 2417.62C337.612 2417.58 338.305 2417.55 338.997 2417.51C350.245 2416.93 360.995 2416.37 370.661 2413.22C370.792 2413.18 370.933 2413.25 370.976 2413.38Z" fill="#F1DED0" fill-opacity="0.29"/>
<path fill-rule="evenodd" clip-rule="evenodd" d="M370.902 2655.31C371.006 2655.4 371.018 2655.55 370.928 2655.66C364.128 2663.57 356.401 2666.11 348.309 2666.67C344.269 2666.95 340.136 2666.74 335.987 2666.46C335.308 2666.42 334.629 2666.37 333.949 2666.32C330.471 2666.08 326.989 2665.83 323.531 2665.83C315.271 2665.83 307.187 2667.23 299.761 2673.34C292.328 2679.46 285.522 2690.33 279.892 2709.36C268.629 2747.41 262.102 2817.98 264.521 2947.96C266.94 3077.94 278.303 3267.31 302.806 3542.97C302.818 3543.11 302.717 3543.23 302.579 3543.24C302.442 3543.26 302.32 3543.16 302.308 3543.02C277.805 3267.35 266.441 3077.97 264.021 2947.97C261.602 2817.99 268.125 2747.35 279.412 2709.21C285.056 2690.14 291.901 2679.16 299.443 2672.95C306.994 2666.74 315.211 2665.33 323.531 2665.33C327.008 2665.33 330.511 2665.58 333.989 2665.82C334.667 2665.87 335.345 2665.92 336.021 2665.96C340.169 2666.24 344.271 2666.45 348.274 2666.17C356.267 2665.62 363.856 2663.12 370.549 2655.33C370.639 2655.23 370.797 2655.22 370.902 2655.31Z" fill="#F1DED0" fill-opacity="0.29"/>
<path fill-rule="evenodd" clip-rule="evenodd" d="M367.877 2934.45C370.249 2934.26 372.571 2932.91 374.799 2929.91C374.882 2929.8 375.038 2929.77 375.149 2929.86C375.26 2929.94 375.283 2930.09 375.201 2930.2C372.915 2933.28 370.475 2934.74 367.916 2934.94C365.368 2935.14 362.759 2934.09 360.141 2932.26C354.978 2928.65 349.646 2921.94 344.463 2915.42L344.261 2915.16C341.632 2911.85 339.041 2908.6 336.52 2905.82C333.997 2903.03 331.559 2900.73 329.24 2899.31C326.922 2897.9 324.763 2897.39 322.769 2898.12C320.766 2898.85 318.855 2900.84 317.103 2904.62C313.598 2912.18 310.812 2926.65 309.075 2951.45C307.339 2976.24 306.651 3011.31 307.321 3060.03C308.661 3157.46 315.433 3309.48 330.105 3542.98C330.113 3543.11 330.009 3543.23 329.871 3543.24C329.733 3543.25 329.614 3543.14 329.606 3543.01C314.934 3309.51 308.162 3157.48 306.821 3060.03C306.151 3011.31 306.839 2976.22 308.577 2951.41C310.313 2926.62 313.101 2912.06 316.649 2904.41C318.424 2900.59 320.41 2898.44 322.598 2897.65C324.795 2896.85 327.119 2897.43 329.501 2898.89C331.882 2900.34 334.359 2902.69 336.891 2905.48C339.424 2908.28 342.026 2911.54 344.653 2914.85L344.817 2915.06C350.029 2921.62 355.324 2928.28 360.427 2931.85C363.002 2933.65 365.494 2934.63 367.877 2934.45Z" fill="#F1DED0" fill-opacity="0.29"/>
<path fill-rule="evenodd" clip-rule="evenodd" d="M361.966 3543C361.966 3542.86 362.078 3542.75 362.216 3542.75H370.739C370.877 3542.75 370.989 3542.86 370.989 3543C370.989 3543.13 370.877 3543.25 370.739 3543.25H362.216C362.078 3543.25 361.966 3543.13 361.966 3543Z" fill="#F1DED0" fill-opacity="0.29"/>
</svg>
